<svg width="203" height="41" viewBox="0 0 203 41" fill="none" xmlns="http://www.w3.org/2000/svg">
<path d="M4.13953 38.16H10.8395C11.0495 38 11.2295 37.76 11.2295 37.4V27.79H11.6995C12.2995 27.79 12.6395 27.53 12.8095 27.32C13.1895 26.89 13.1895 26.34 13.1895 26.17V20.39C13.1895 19.84 12.9295 19.5 12.7595 19.28C12.3795 18.94 11.8695 18.94 11.6995 18.94H11.2695V13.67C11.3095 13.5 11.3095 13.29 11.3095 13.16C11.3095 12.14 11.9895 11.97 12.4195 11.97H13.9095C15.2295 11.97 16.6795 11.93 17.6595 11.97C17.9995 11.97 18.2595 12.1 18.4295 12.27C18.7295 12.61 18.7295 13.16 18.7295 13.38H14.7295C14.3895 13.38 14.0495 13.68 14.0895 14.02C14.0895 14.36 14.3895 14.66 14.7295 14.66H18.7695V16.02H16.7695C16.4295 16.02 16.0895 16.32 16.1295 16.66C16.1295 17 16.4295 17.3 16.7695 17.3H18.7695V18.66H16.1695C15.8295 18.66 15.4895 18.96 15.5295 19.3C15.5295 19.64 15.8295 19.94 16.1695 19.94H18.7695V21.43C18.5095 21.69 18.2595 22.07 18.2595 22.75V26.32H14.7295C14.3895 26.32 14.0495 26.62 14.0895 26.96C14.0895 27.3 14.3895 27.6 14.7295 27.6H18.2595V28.96H16.7695C16.4295 28.96 16.0895 29.26 16.1295 29.6C16.1295 29.94 16.4295 30.24 16.7695 30.24H18.2595V31.56H16.1695C15.8295 31.56 15.4895 31.86 15.5295 32.2C15.5295 32.54 15.8295 32.84 16.1695 32.84H18.6395C18.6395 32.84 18.7295 32.97 18.7695 33.01V34.12H14.7295C14.3895 34.12 14.0495 34.42 14.0895 34.76C14.0895 35.1 14.3895 35.4 14.7295 35.4H18.7695V36.76H16.7695C16.4295 36.76 16.0895 37.06 16.1295 37.4C16.1295 37.44 16.1295 37.49 16.1695 37.57C16.1695 37.9 16.3795 38.19 16.7795 38.2H32.9595C35.0195 38.17 36.9895 36.99 37.9595 35.14C38.5095 34.12 38.6395 33.01 38.6395 31.87V16.61C38.6395 15.63 38.6395 14.7 38.2595 13.76C37.7495 12.48 36.8995 11.55 35.7895 10.78C34.9795 10.18 34.1695 9.59003 33.3195 8.99003C30.8895 7.20003 28.4295 5.42003 25.9595 3.63003C25.0695 2.99003 24.1695 2.31003 23.2795 1.67003C22.4295 1.03003 21.5395 0.480028 20.4695 0.270028C19.1895 0.0100281 17.8695 0.230028 16.7195 0.820028C16.2895 1.03003 15.8695 1.33003 15.4895 1.63003C14.3795 2.44003 13.2795 3.25003 12.1295 4.05003V3.54003C12.0395 2.43003 11.1895 1.58003 10.0895 1.46003C9.65953 1.42003 9.27953 1.46003 8.85953 1.46003H6.81953C6.34953 1.46003 5.83953 1.42003 5.41953 1.55003C4.43953 1.85003 3.79953 2.74003 3.75953 3.72003C3.71953 4.66003 3.75953 5.63003 3.75953 6.57003V9.84003C3.75953 9.93003 3.79953 9.93003 3.71953 10.05C3.65953 10.11 3.60286 10.1667 3.54953 10.22C2.60953 10.86 1.67953 11.54 1.03953 12.43C0.269531 13.54 0.0195312 14.77 0.0195312 16.04V32.62C0.0195312 34.19 0.619531 35.68 1.71953 36.79C2.41953 37.49 3.25953 37.94 4.15953 38.19L4.13953 38.16ZM11.6595 20.31H11.7895V26.3C11.7895 26.3 11.7895 26.43 11.7495 26.47C11.7495 26.47 11.7095 26.51 11.5795 26.51H11.0695C11.0695 26.51 11.0295 26.42 11.0295 26.25V23.87C11.0695 23.49 10.9395 22.93 10.4795 22.68L7.53953 21.15C7.53953 21.15 7.32953 21.02 7.32953 20.77V20.3C7.87953 20.26 10.1395 20.26 11.6695 20.3L11.6595 20.31ZM9.91953 17.04H7.61953V16.57C7.61953 16.31 7.78953 16.23 7.78953 16.23L9.91953 15.17V17.04ZM19.6195 32.39C19.4895 32.22 19.4495 31.92 19.4495 31.84V22.87C19.4495 22.74 19.4495 22.53 19.5795 22.44C19.6695 22.35 19.8795 22.31 19.9595 22.31H20.0895C24.2595 22.31 30.5995 22.27 31.0295 22.31C31.1195 22.31 31.1995 22.31 31.1995 22.35C31.2395 22.48 31.2895 22.82 31.2895 23.41C31.2895 23.92 30.9495 24.18 30.8195 24.26L22.0995 26.6L21.9695 26.64C21.3695 26.94 21.1995 27.66 21.2495 28.17V31.83C21.2495 32.17 21.2095 32.55 20.8695 32.55H20.0995C19.8895 32.55 19.7195 32.51 19.6295 32.38L19.6195 32.39ZM19.9595 16.32V13.17C24.3395 14.11 30.3395 15.42 30.8595 15.64C31.1995 15.81 31.2395 16.24 31.2395 16.24V16.71C31.2395 16.8 31.1995 16.84 31.1995 16.88C31.0695 17.01 30.7695 17.05 30.5995 17.05H20.6795C20.2995 17.05 19.9595 16.71 19.9595 16.33V16.32ZM1.44953 14.7C1.70953 13.68 2.25953 12.79 3.06953 12.19C3.49953 11.85 3.91953 11.55 4.34953 11.25C4.47953 11.12 4.64953 11.08 4.77953 10.91C5.11953 10.57 5.07953 9.89003 5.07953 9.80003V4.06003C5.07953 3.76003 5.03953 3.46003 5.20953 3.17003C5.46953 2.74003 5.88953 2.70003 6.31953 2.70003H9.54953C10.0595 2.70003 10.6095 2.87003 10.7395 3.47003C10.8295 3.94003 10.7395 4.49003 10.7395 5.00003V5.17003C10.6995 5.30003 10.7395 5.47003 10.8295 5.64003C10.9995 5.94003 11.4295 6.07003 11.7195 5.90003C12.3195 5.43003 12.9495 5.01003 13.5495 4.54003C14.7395 3.82003 15.8495 2.80003 17.0795 2.07003C18.6495 1.13003 20.5695 1.39003 22.0195 2.41003C22.6195 2.84003 23.2495 3.30003 23.8495 3.73003C26.2295 5.43003 28.5695 7.17003 30.9595 8.87003C32.4895 9.98003 34.0195 11.04 35.5095 12.14C36.6995 13.03 37.2995 14.39 37.2995 15.84V26.94C37.3395 28.9 37.3395 30.81 37.3395 32.72C37.3395 34.51 36.2795 36.12 34.6595 36.8C33.8095 37.14 32.9995 37.14 32.1495 37.14H20.8295C20.6195 37.14 20.2295 37.1 20.0595 36.67C19.8495 35.99 19.9295 34.25 19.9695 33.82H20.8195C20.9895 33.82 21.1195 33.78 21.2495 33.78C21.4595 33.74 21.7595 33.61 22.0195 33.35C22.3995 32.97 22.6195 32.46 22.5695 31.78V27.83L31.2495 25.49L31.3795 25.45C31.8495 25.24 32.6095 24.56 32.6095 23.41C32.6095 22.35 32.6095 21.11 31.1195 21.03C30.5695 20.99 21.3295 21.03 20.1395 21.03H20.0095V18.35H30.6895C30.8995 18.35 31.6695 18.31 32.1795 17.84C32.4795 17.54 32.6495 17.2 32.6495 16.73V16.18C32.6095 15.71 32.3495 14.82 31.4595 14.44C30.7795 14.14 22.3495 12.36 19.6295 11.76C19.5895 11.67 19.4995 11.55 19.4195 11.46C18.9895 10.99 18.4395 10.74 17.7195 10.69C16.6995 10.65 15.2095 10.65 13.8895 10.69H12.3995C11.5095 10.69 9.96953 11.2 9.96953 13.2C9.96953 13.37 9.92953 13.58 9.92953 13.71L7.24953 15.03C6.90953 15.2 6.30953 15.71 6.30953 16.56C6.30953 17.24 6.30953 18.26 7.49953 18.35H9.92953V18.99H7.28953C6.09953 19.08 6.09953 20.1 6.09953 20.78C6.09953 21.63 6.69953 22.14 6.98953 22.31L9.79953 23.8V26.27C9.79953 26.57 9.83953 26.82 9.92953 26.99V36.64C9.92953 36.94 9.66953 37.19 9.37953 37.19H7.11953C5.88953 37.19 4.64953 37.27 3.53953 36.59C2.17953 35.78 1.32953 34.34 1.32953 32.72V16.61C1.32953 15.97 1.28953 15.33 1.45953 14.7H1.44953Z" fill="#E9571C"/>
<path d="M61.6702 13.8607H53.4802V22.4707H50.9102V2.9707H62.9902V5.0707H53.4802V11.7607H61.6702V13.8607Z" fill="#EE5719"/>
<path d="M65.0195 4.13141C65.0195 3.73141 65.1395 3.39141 65.3895 3.11141C65.6395 2.83141 65.9995 2.69141 66.4795 2.69141C66.9595 2.69141 67.3295 2.83141 67.5795 3.11141C67.8295 3.39141 67.9595 3.73141 67.9595 4.13141C67.9595 4.53141 67.8395 4.87141 67.5795 5.13141C67.3195 5.39141 66.9595 5.53141 66.4795 5.53141C65.9995 5.53141 65.6295 5.40141 65.3895 5.13141C65.1495 4.86141 65.0195 4.53141 65.0195 4.13141ZM67.6995 22.4714H65.2195V7.98141H67.6995V22.4714Z" fill="#EE5719"/>
<path d="M75.8406 13.2705L79.0506 7.98047H81.9406L77.2006 15.1505L82.0906 22.4805H79.2206L75.8706 17.0505L72.5206 22.4805H69.6406L74.5306 15.1505L69.7906 7.98047H72.6606L75.8406 13.2705Z" fill="#EE5719"/>
<path d="M92.3283 7.98094L92.3983 9.59094C93.4583 8.34094 94.8983 7.71094 96.6983 7.71094C98.7283 7.71094 100.108 8.49094 100.838 10.0409C101.318 9.34094 101.948 8.78094 102.718 8.35094C103.488 7.92094 104.408 7.71094 105.458 7.71094C108.638 7.71094 110.258 9.39094 110.308 12.7609V22.4709H107.828V12.9109C107.828 11.8709 107.588 11.1009 107.118 10.5909C106.648 10.0809 105.848 9.82094 104.738 9.82094C103.818 9.82094 103.058 10.0909 102.448 10.6409C101.838 11.1909 101.488 11.9309 101.388 12.8609V22.4809H98.8983V12.9809C98.8983 10.8709 97.8683 9.82094 95.8083 9.82094C94.1783 9.82094 93.0683 10.5109 92.4683 11.9009V22.4809H89.9883V7.99094H92.3283V7.98094Z" fill="#061A48"/>
<path d="M118.101 18.8405L121.481 7.98047H124.131L118.301 24.7105C117.401 27.1205 115.961 28.3305 114.001 28.3305L113.531 28.2905L112.611 28.1205V26.1105L113.281 26.1605C114.121 26.1605 114.771 25.9905 115.241 25.6505C115.711 25.3105 116.101 24.6905 116.401 23.7905L116.951 22.3205L111.781 7.99047H114.491L118.111 18.8505L118.101 18.8405Z" fill="#061A48"/>
<path d="M144.03 15.3806C144.03 17.6006 143.52 19.3706 142.5 20.7206C141.48 22.0606 140.12 22.7406 138.4 22.7406C136.57 22.7406 135.15 22.0906 134.15 20.8006L134.03 22.4706H131.75V1.89062H134.23V9.57062C135.23 8.33062 136.61 7.71062 138.37 7.71062C140.13 7.71062 141.51 8.38062 142.52 9.71062C143.52 11.0406 144.03 12.8606 144.03 15.1806V15.3906V15.3806ZM141.55 15.1006C141.55 13.4106 141.22 12.1106 140.57 11.1906C139.92 10.2706 138.98 9.81063 137.76 9.81063C136.13 9.81063 134.95 10.5706 134.24 12.0906V18.3606C135 19.8806 136.18 20.6406 137.79 20.6406C138.98 20.6406 139.9 20.1806 140.56 19.2606C141.22 18.3406 141.55 16.9606 141.55 15.1106V15.1006Z" fill="#061A48"/>
<path d="M155.42 21.0407C154.46 22.1707 153.04 22.7407 151.17 22.7407C149.63 22.7407 148.45 22.2907 147.64 21.3907C146.83 20.4907 146.42 19.1607 146.41 17.4007V7.9707H148.89V17.3307C148.89 19.5307 149.78 20.6307 151.57 20.6307C153.46 20.6307 154.72 19.9207 155.35 18.5107V7.9707H157.83V22.4607H155.47L155.42 21.0307V21.0407Z" fill="#061A48"/>
<path d="M160.922 4.13141C160.922 3.73141 161.042 3.39141 161.292 3.11141C161.542 2.83141 161.902 2.69141 162.382 2.69141C162.862 2.69141 163.232 2.83141 163.482 3.11141C163.732 3.39141 163.862 3.73141 163.862 4.13141C163.862 4.53141 163.742 4.87141 163.482 5.13141C163.222 5.39141 162.862 5.53141 162.382 5.53141C161.902 5.53141 161.532 5.40141 161.292 5.13141C161.042 4.86141 160.922 4.53141 160.922 4.13141ZM163.602 22.4714H161.122V7.98141H163.602V22.4714Z" fill="#061A48"/>
<path d="M169.57 22.4706H167.09V1.89062H169.57V22.4706Z" fill="#061A48"/>
<path d="M172.248 15.1006C172.248 12.8806 172.778 11.0906 173.828 9.73062C174.878 8.37062 176.258 7.70062 177.968 7.70062C179.678 7.70062 181.008 8.28062 181.998 9.44062V1.89062H184.478V22.4706H182.198L182.078 20.9206C181.088 22.1306 179.708 22.7406 177.938 22.7406C176.168 22.7406 174.888 22.0506 173.828 20.6806C172.768 19.3006 172.238 17.5106 172.238 15.2906V15.1006H172.248ZM174.728 15.3806C174.728 17.0206 175.068 18.3106 175.748 19.2406C176.428 20.1706 177.368 20.6306 178.558 20.6306C180.128 20.6306 181.278 19.9206 181.998 18.5106V11.8506C181.258 10.4806 180.118 9.80062 178.578 9.80062C177.368 9.80062 176.418 10.2706 175.738 11.2106C175.058 12.1506 174.718 13.5406 174.718 15.3806H174.728Z" fill="#061A48"/>
<path d="M56.4407 37.2298C56.2007 37.5698 55.8407 37.8398 55.3707 38.0298C54.9007 38.2198 54.3707 38.3098 53.7707 38.2998C53.2907 38.2998 52.8707 38.1798 52.5107 37.9598C52.1507 37.7498 51.8707 37.4398 51.6707 37.0398C51.4707 36.6398 51.3507 36.1898 51.3207 35.6798C51.3007 35.2798 51.3507 34.7398 51.4707 34.0598C51.5907 33.3798 51.8107 32.7898 52.1107 32.2998C52.4107 31.7998 52.8007 31.4298 53.2507 31.1598C53.7107 30.8998 54.2307 30.7698 54.8207 30.7798C55.5007 30.7898 56.0407 30.9998 56.4507 31.3898C56.8507 31.7798 57.0807 32.3298 57.1407 33.0398H56.2107C56.1707 32.5798 56.0307 32.2198 55.7907 31.9698C55.5507 31.7198 55.2207 31.5898 54.7907 31.5798C54.1607 31.5598 53.6307 31.7798 53.2107 32.2598C52.7907 32.7398 52.5107 33.4298 52.3707 34.3498L52.2707 35.0498L52.2507 35.4298C52.2507 36.0898 52.3907 36.5998 52.6607 36.9598C52.9307 37.3198 53.3107 37.4998 53.8007 37.5098C54.5107 37.5298 55.0707 37.3498 55.4807 36.9898L55.7807 35.3498H54.1307L54.2707 34.5598H56.8407L56.4207 37.2398L56.4407 37.2298Z" fill="#061A48"/>
<path d="M60.4424 32.6602C60.9024 32.6602 61.2924 32.7902 61.6124 33.0302C61.9324 33.2702 62.1724 33.6002 62.3324 34.0302C62.4924 34.4602 62.5424 34.9202 62.4924 35.4202V35.5302C62.4224 36.0602 62.2624 36.5402 62.0124 36.9602C61.7624 37.3902 61.4324 37.7202 61.0424 37.9602C60.6424 38.2002 60.2024 38.3102 59.7324 38.3002C59.2824 38.3002 58.8924 38.1702 58.5624 37.9302C58.2324 37.6902 58.0024 37.3602 57.8424 36.9502C57.6824 36.5402 57.6424 36.0802 57.6824 35.5802C57.7324 35.0202 57.8824 34.5102 58.1424 34.0602C58.3924 33.6102 58.7224 33.2602 59.1224 33.0202C59.5224 32.7702 59.9624 32.6602 60.4424 32.6702V32.6602ZM58.5924 35.5702C58.5724 35.7802 58.5724 36.0002 58.5924 36.2302C58.6224 36.6302 58.7424 36.9402 58.9424 37.1702C59.1424 37.4002 59.4124 37.5302 59.7524 37.5402C60.0524 37.5502 60.3324 37.4802 60.5824 37.3202C60.8324 37.1602 61.0524 36.9202 61.2224 36.6002C61.3924 36.2802 61.5124 35.9202 61.5624 35.5302C61.5924 35.2202 61.5924 34.9602 61.5824 34.7502C61.5424 34.3402 61.4224 34.0302 61.2124 33.7902C61.0024 33.5502 60.7324 33.4302 60.4024 33.4202C59.9324 33.4202 59.5324 33.5902 59.2024 33.9702C58.8724 34.3502 58.6724 34.8402 58.5924 35.4602V35.5802V35.5702Z" fill="#061A48"/>
<path d="M65.9307 32.6602C66.3907 32.6602 66.7807 32.7902 67.1007 33.0302C67.4207 33.2702 67.6607 33.6002 67.8207 34.0302C67.9807 34.4602 68.0307 34.9202 67.9807 35.4202V35.5302C67.9107 36.0602 67.7507 36.5402 67.5007 36.9602C67.2507 37.3902 66.9207 37.7202 66.5307 37.9602C66.1307 38.2002 65.6907 38.3102 65.2207 38.3002C64.7707 38.3002 64.3807 38.1702 64.0507 37.9302C63.7207 37.6902 63.4907 37.3602 63.3307 36.9502C63.1707 36.5402 63.1307 36.0802 63.1707 35.5802C63.2207 35.0202 63.3707 34.5102 63.6307 34.0602C63.8807 33.6102 64.2107 33.2602 64.6107 33.0202C65.0107 32.7702 65.4507 32.6602 65.9307 32.6702V32.6602ZM64.0807 35.5702C64.0607 35.7802 64.0607 36.0002 64.0807 36.2302C64.1107 36.6302 64.2307 36.9402 64.4307 37.1702C64.6307 37.4002 64.9007 37.5302 65.2407 37.5402C65.5407 37.5502 65.8207 37.4802 66.0707 37.3202C66.3207 37.1602 66.5407 36.9202 66.7107 36.6002C66.8807 36.2802 67.0007 35.9202 67.0507 35.5302C67.0807 35.2202 67.0807 34.9602 67.0707 34.7502C67.0307 34.3402 66.9107 34.0302 66.7007 33.7902C66.4907 33.5502 66.2207 33.4302 65.8907 33.4202C65.4207 33.4202 65.0207 33.5902 64.6907 33.9702C64.3607 34.3502 64.1607 34.8402 64.0807 35.4602V35.5802V35.5702Z" fill="#061A48"/>
<path d="M68.6489 35.4707C68.7189 34.9207 68.8689 34.4207 69.1089 33.9707C69.3489 33.5207 69.6389 33.1907 69.9889 32.9707C70.3389 32.7507 70.7189 32.6407 71.1389 32.6507C71.7489 32.6607 72.2089 32.8807 72.5389 33.3107L73.0589 30.4707H73.9689L72.6289 38.1907H71.7989L71.8989 37.6107C71.4689 38.0807 70.9389 38.3107 70.3089 38.2907C69.8089 38.2807 69.4089 38.0807 69.1089 37.7007C68.8089 37.3207 68.6489 36.8107 68.6289 36.1707C68.6189 35.9707 68.6289 35.7407 68.6489 35.4607V35.4707ZM69.5189 35.9907C69.5189 36.4707 69.5989 36.8407 69.7789 37.1007C69.9589 37.3607 70.2289 37.5007 70.5689 37.5107C71.0989 37.5307 71.5589 37.2707 71.9689 36.7207L72.3989 34.2107C72.1989 33.7107 71.8289 33.4607 71.2989 33.4507C70.9389 33.4407 70.6289 33.5507 70.3489 33.7707C70.0789 34.0007 69.8689 34.3107 69.7289 34.7207C69.5889 35.1307 69.5089 35.5507 69.5089 35.9907H69.5189Z" fill="#061A48"/>
<path d="M78.8607 32.6504C79.4707 32.6604 79.9407 32.8804 80.2607 33.3104L80.4307 32.7604H81.2707L79.9607 40.2904H79.0607L79.5507 37.7004C79.1107 38.1204 78.6107 38.3204 78.0307 38.3004C77.5207 38.3004 77.1107 38.1004 76.8107 37.7204C76.5107 37.3404 76.3407 36.8304 76.3207 36.1904C76.3007 35.7704 76.3507 35.3404 76.4707 34.8804C76.5907 34.4204 76.7607 34.0204 76.9907 33.6704C77.2207 33.3304 77.5007 33.0704 77.8207 32.9004C78.1407 32.7304 78.4907 32.6504 78.8607 32.6604V32.6504ZM77.2507 35.5704L77.2207 35.9904C77.2107 36.4804 77.3007 36.8504 77.4807 37.1204C77.6707 37.3904 77.9307 37.5304 78.2807 37.5304C78.7907 37.5404 79.2507 37.3004 79.6407 36.8004L80.1107 34.1304C79.8907 33.6604 79.5307 33.4204 79.0207 33.4104C78.5607 33.4104 78.1707 33.5804 77.8607 33.9404C77.5507 34.3004 77.3407 34.8404 77.2307 35.5704H77.2507Z" fill="#061A48"/>
<path d="M84.9898 37.6598C84.5598 38.0998 84.0198 38.3098 83.3698 38.2998C82.8498 38.2898 82.4698 38.0998 82.2198 37.7398C81.9698 37.3798 81.8798 36.8898 81.9398 36.2698L82.5198 32.7598H83.4298L82.8398 36.2898C82.8198 36.4398 82.8198 36.5798 82.8298 36.7198C82.8498 36.9598 82.9198 37.1498 83.0498 37.2898C83.1798 37.4298 83.3498 37.4998 83.5798 37.5098C84.2298 37.5298 84.7298 37.2698 85.0898 36.7198L85.7698 32.7598H86.6798L85.7398 38.1998H84.8798L84.9998 37.6598H84.9898Z" fill="#061A48"/>
<path d="M90.1588 38.1915C90.1388 38.0915 90.1188 38.0015 90.1188 37.9015L90.1388 37.6115C89.6388 38.0715 89.1088 38.3015 88.5488 38.2815C88.0688 38.2815 87.6788 38.1215 87.3788 37.8315C87.0788 37.5315 86.9388 37.1615 86.9688 36.7215C86.9988 36.1415 87.2588 35.6915 87.7288 35.3715C88.1988 35.0515 88.8188 34.8815 89.5888 34.8815H90.5388L90.5988 34.4515C90.6288 34.1315 90.5688 33.8715 90.4088 33.6815C90.2488 33.4915 90.0088 33.3915 89.6888 33.3915C89.3788 33.3915 89.0988 33.4615 88.8588 33.6215C88.6188 33.7815 88.4688 33.9915 88.4188 34.2515H87.5088C87.5388 33.9415 87.6588 33.6615 87.8788 33.4115C88.0988 33.1615 88.3788 32.9715 88.7188 32.8415C89.0588 32.7015 89.4188 32.6415 89.7788 32.6515C90.3488 32.6615 90.7888 32.8415 91.0988 33.1615C91.4088 33.4915 91.5488 33.9315 91.4988 34.4715L91.0588 37.1615L91.0288 37.5515C91.0288 37.7315 91.0388 37.9215 91.0888 38.1015V38.1815H90.1588V38.1915ZM88.7288 37.4915C89.0188 37.4915 89.2988 37.4315 89.5588 37.2815C89.8188 37.1315 90.0388 36.9315 90.2288 36.6715L90.4288 35.5515H89.7388C89.1688 35.5515 88.7288 35.6415 88.4188 35.8215C88.1088 36.0015 87.9388 36.2615 87.8988 36.5915C87.8688 36.8415 87.9288 37.0615 88.0788 37.2315C88.2288 37.4015 88.4488 37.4915 88.7288 37.4915Z" fill="#061A48"/>
<path d="M93.0406 38.1907H92.1406L93.4806 30.4707H94.3906L93.0506 38.1907H93.0406Z" fill="#061A48"/>
<path d="M95.2594 38.1915H94.3594L95.2994 32.7515H96.1994L95.2594 38.1915ZM96.0094 30.7715C96.1594 30.7715 96.2894 30.8115 96.3894 30.9115C96.4894 31.0115 96.5394 31.1415 96.5394 31.3015C96.5394 31.4615 96.4894 31.5915 96.3894 31.6915C96.2894 31.7915 96.1594 31.8415 96.0094 31.8515C95.8494 31.8515 95.7194 31.8115 95.6194 31.7115C95.5194 31.6115 95.4694 31.4915 95.4694 31.3315C95.4694 31.1715 95.5194 31.0415 95.6194 30.9415C95.7194 30.8415 95.8394 30.7815 95.9994 30.7715H96.0094Z" fill="#061A48"/>
<path d="M98.8897 31.4416L98.6597 32.7616H99.6497L99.5197 33.4816H98.5397L97.9697 36.8616C97.9697 36.9516 97.9597 37.0316 97.9697 37.1016C97.9897 37.3616 98.1397 37.4916 98.3997 37.4916C98.5097 37.4916 98.6597 37.4716 98.8397 37.4416L98.7697 38.2016C98.5497 38.2616 98.3297 38.2916 98.1097 38.2916C97.7497 38.2916 97.4797 38.1516 97.2997 37.8916C97.1197 37.6316 97.0497 37.2816 97.0897 36.8416L97.6397 33.4716H96.6797L96.8097 32.7516H97.7697L97.9997 31.4316H98.8997L98.8897 31.4416Z" fill="#061A48"/>
<path d="M101.49 36.8198L103.42 32.7598H104.42L101.19 39.0998C100.74 39.9798 100.17 40.4198 99.4602 40.4098C99.3402 40.4098 99.1502 40.3798 98.9102 40.3198L98.9902 39.5698L99.2302 39.5898C99.5202 39.5998 99.7702 39.5398 99.9802 39.3998C100.19 39.2598 100.37 39.0298 100.54 38.7098L100.87 38.0898L99.9302 32.7698H100.88L101.49 36.8298V36.8198Z" fill="#061A48"/>
<path d="M111.201 36.9098L112.931 32.7598H113.871L111.391 38.1998H110.651L110.091 34.0898L108.131 38.1998H107.391L106.801 32.7598H107.671L108.001 36.8098L109.931 32.7598H110.661L111.191 36.9098H111.201Z" fill="#061A48"/>
<path d="M116.629 32.6602C117.089 32.6602 117.479 32.7902 117.799 33.0302C118.119 33.2702 118.369 33.6002 118.519 34.0302C118.679 34.4502 118.729 34.9202 118.679 35.4202V35.5302C118.609 36.0602 118.449 36.5402 118.199 36.9602C117.949 37.3902 117.619 37.7202 117.229 37.9602C116.829 38.2002 116.389 38.3102 115.919 38.3002C115.469 38.3002 115.079 38.1702 114.749 37.9302C114.419 37.6902 114.179 37.3602 114.029 36.9502C113.879 36.5302 113.819 36.0802 113.869 35.5802C113.919 35.0202 114.069 34.5102 114.329 34.0602C114.579 33.6102 114.909 33.2602 115.309 33.0202C115.709 32.7802 116.149 32.6602 116.629 32.6702V32.6602ZM114.779 35.5702C114.759 35.7802 114.759 36.0002 114.779 36.2302C114.809 36.6302 114.929 36.9402 115.129 37.1702C115.329 37.4002 115.599 37.5302 115.939 37.5402C116.239 37.5502 116.519 37.4802 116.769 37.3202C117.019 37.1602 117.239 36.9202 117.409 36.6002C117.579 36.2802 117.699 35.9202 117.749 35.5302C117.779 35.2202 117.779 34.9602 117.759 34.7502C117.719 34.3402 117.599 34.0302 117.389 33.7902C117.179 33.5502 116.909 33.4302 116.579 33.4202C116.109 33.4202 115.709 33.5902 115.379 33.9702C115.049 34.3502 114.849 34.8402 114.769 35.4602V35.5802L114.779 35.5702Z" fill="#061A48"/>
<path d="M122.48 33.5907L122.05 33.5507C121.47 33.5507 121.01 33.8107 120.67 34.3407L120 38.2007H119.09L120.03 32.7607H120.91L120.77 33.3907C121.15 32.8807 121.61 32.6407 122.13 32.6507C122.24 32.6507 122.38 32.6807 122.56 32.7307L122.46 33.5907H122.48Z" fill="#061A48"/>
<path d="M124.221 35.6905L123.511 36.3305L123.191 38.2005H122.281L123.621 30.4805H124.531L123.731 35.0905L124.291 34.5305L126.221 32.7605H127.401L124.901 35.0805L126.621 38.2005H125.621L124.221 35.6905Z" fill="#061A48"/>
<path d="M132.71 38.1913C132.69 38.0913 132.67 38.0013 132.67 37.9013L132.69 37.6113C132.19 38.0713 131.66 38.3013 131.1 38.2813C130.62 38.2813 130.23 38.1213 129.93 37.8313C129.63 37.5313 129.49 37.1613 129.52 36.7213C129.55 36.1413 129.81 35.6913 130.28 35.3713C130.75 35.0513 131.37 34.8813 132.14 34.8813H133.09L133.15 34.4513C133.18 34.1313 133.12 33.8713 132.96 33.6813C132.8 33.4913 132.56 33.3913 132.24 33.3913C131.93 33.3913 131.65 33.4613 131.41 33.6213C131.17 33.7813 131.02 33.9913 130.97 34.2513H130.06C130.09 33.9413 130.21 33.6613 130.43 33.4113C130.65 33.1613 130.93 32.9713 131.27 32.8413C131.61 32.7113 131.97 32.6413 132.33 32.6513C132.9 32.6613 133.34 32.8413 133.65 33.1613C133.97 33.4913 134.1 33.9313 134.05 34.4713L133.61 37.1613L133.58 37.5513C133.58 37.7313 133.59 37.9213 133.64 38.1013V38.1813H132.71V38.1913ZM131.28 37.4913C131.57 37.4913 131.85 37.4313 132.11 37.2813C132.37 37.1313 132.59 36.9313 132.78 36.6713L132.98 35.5513H132.29C131.72 35.5513 131.28 35.6413 130.97 35.8213C130.66 36.0013 130.49 36.2613 130.45 36.5913C130.42 36.8413 130.48 37.0613 130.63 37.2313C130.78 37.4013 131 37.4913 131.28 37.4913Z" fill="#061A48"/>
<path d="M137.011 31.4416L136.781 32.7616H137.771L137.641 33.4816H136.661L136.091 36.8616C136.091 36.9516 136.081 37.0316 136.091 37.1016C136.111 37.3616 136.261 37.4916 136.521 37.4916C136.631 37.4916 136.781 37.4716 136.961 37.4416L136.891 38.2016C136.671 38.2616 136.451 38.2916 136.231 38.2916C135.871 38.2916 135.601 38.1516 135.421 37.8916C135.241 37.6316 135.171 37.2816 135.211 36.8416L135.761 33.4716H134.801L134.931 32.7516H135.891L136.121 31.4316H137.021L137.011 31.4416Z" fill="#061A48"/>
<path d="M143.291 36.7209C143.341 36.3409 143.131 36.0809 142.671 35.9309L141.731 35.6509C140.931 35.3809 140.551 34.9209 140.571 34.2809C140.591 33.8009 140.811 33.4109 141.231 33.1009C141.641 32.7909 142.131 32.6409 142.691 32.6509C143.241 32.6509 143.691 32.8209 144.031 33.1309C144.371 33.4409 144.541 33.8509 144.531 34.3509H143.631C143.631 34.0709 143.551 33.8509 143.371 33.6809C143.191 33.5109 142.961 33.4209 142.661 33.4109C142.351 33.4109 142.071 33.4809 141.851 33.6409C141.641 33.7909 141.521 33.9909 141.481 34.2309C141.441 34.5409 141.631 34.7709 142.061 34.9209L142.521 35.0409C143.141 35.2009 143.591 35.4109 143.851 35.6709C144.111 35.9309 144.231 36.2509 144.211 36.6309C144.191 36.9709 144.081 37.2609 143.881 37.5109C143.681 37.7609 143.411 37.9509 143.081 38.0909C142.751 38.2209 142.391 38.2809 142.011 38.2709C141.431 38.2709 140.961 38.1009 140.581 37.7709C140.201 37.4409 140.021 37.0209 140.041 36.5009H140.951C140.951 36.8109 141.051 37.0509 141.241 37.2409C141.431 37.4209 141.701 37.5209 142.041 37.5209C142.371 37.5209 142.661 37.4609 142.901 37.3109C143.141 37.1609 143.281 36.9609 143.311 36.7109L143.291 36.7209Z" fill="#061A48"/>
<path d="M147.211 38.2911C146.531 38.2811 146.001 38.0311 145.621 37.5411C145.241 37.0511 145.081 36.4311 145.141 35.6811L145.171 35.4611C145.231 34.9211 145.391 34.4311 145.651 33.9811C145.911 33.5311 146.231 33.2011 146.611 32.9711C146.991 32.7411 147.401 32.6411 147.841 32.6511C148.401 32.6611 148.841 32.8511 149.161 33.2111C149.481 33.5711 149.651 34.0511 149.681 34.6711C149.681 34.8911 149.681 35.1111 149.661 35.3211L149.601 35.7411H146.051C145.991 36.2311 146.071 36.6511 146.291 37.0011C146.511 37.3511 146.841 37.5211 147.291 37.5411C147.831 37.5511 148.321 37.3111 148.781 36.8211L149.301 37.2611C149.071 37.5911 148.781 37.8511 148.421 38.0311C148.061 38.2211 147.661 38.3111 147.221 38.3011L147.211 38.2911ZM147.791 33.4111C147.411 33.4111 147.091 33.5311 146.811 33.7911C146.531 34.0511 146.311 34.4511 146.141 34.9711H148.781L148.801 34.8911C148.851 34.4711 148.791 34.1211 148.601 33.8411C148.411 33.5611 148.141 33.4211 147.791 33.4111Z" fill="#061A48"/>
<path d="M151.749 32.7512L151.619 33.4412C152.109 32.9012 152.659 32.6412 153.289 32.6612C153.799 32.6712 154.179 32.8512 154.429 33.1912C154.669 33.5312 154.759 34.0112 154.699 34.6312L154.109 38.1912H153.199L153.799 34.6212C153.819 34.4612 153.819 34.3012 153.799 34.1612C153.739 33.6912 153.469 33.4512 152.969 33.4412C152.419 33.4412 151.949 33.7212 151.529 34.3112L150.859 38.1812H149.949L150.889 32.7412H151.749V32.7512Z" fill="#061A48"/>
<path d="M158.611 36.7209C158.661 36.3409 158.451 36.0809 157.991 35.9309L157.051 35.6509C156.251 35.3809 155.871 34.9209 155.891 34.2809C155.911 33.8009 156.131 33.4109 156.551 33.1009C156.961 32.7909 157.451 32.6409 158.011 32.6509C158.561 32.6509 159.011 32.8209 159.351 33.1309C159.691 33.4409 159.861 33.8509 159.851 34.3509H158.951C158.951 34.0709 158.871 33.8509 158.691 33.6809C158.511 33.5109 158.281 33.4209 157.981 33.4109C157.671 33.4109 157.391 33.4809 157.171 33.6409C156.961 33.7909 156.841 33.9909 156.801 34.2309C156.761 34.5409 156.951 34.7709 157.381 34.9209L157.841 35.0409C158.461 35.2009 158.911 35.4109 159.171 35.6709C159.431 35.9309 159.551 36.2509 159.531 36.6309C159.511 36.9709 159.401 37.2609 159.201 37.5109C159.001 37.7609 158.731 37.9509 158.401 38.0909C158.071 38.2209 157.711 38.2809 157.331 38.2709C156.751 38.2709 156.281 38.1009 155.901 37.7709C155.521 37.4409 155.341 37.0209 155.361 36.5009H156.271C156.271 36.8109 156.371 37.0509 156.561 37.2409C156.751 37.4209 157.021 37.5209 157.361 37.5209C157.691 37.5209 157.981 37.4609 158.221 37.3109C158.461 37.1609 158.601 36.9609 158.631 36.7109L158.611 36.7209Z" fill="#061A48"/>
<path d="M161.162 38.1915H160.262L161.202 32.7515H162.102L161.162 38.1915ZM161.912 30.7715C162.062 30.7715 162.192 30.8115 162.292 30.9115C162.392 31.0115 162.442 31.1415 162.442 31.3015C162.442 31.4615 162.392 31.5915 162.292 31.6915C162.192 31.7915 162.062 31.8415 161.912 31.8515C161.762 31.8615 161.622 31.8115 161.522 31.7115C161.422 31.6115 161.372 31.4915 161.372 31.3315C161.372 31.1715 161.422 31.0415 161.522 30.9415C161.622 30.8415 161.742 30.7815 161.902 30.7715H161.912Z" fill="#061A48"/>
<path d="M167.332 35.5007C167.262 36.0607 167.112 36.5607 166.872 37.0007C166.632 37.4507 166.342 37.7807 166.012 37.9907C165.672 38.2007 165.302 38.3107 164.892 38.3007C164.232 38.2907 163.752 38.0407 163.432 37.5607L163.242 38.1907H162.402L163.742 30.4707H164.652L164.102 33.3507C164.542 32.8707 165.062 32.6307 165.692 32.6507C166.212 32.6607 166.622 32.8607 166.912 33.2307C167.202 33.6007 167.362 34.1107 167.372 34.7707C167.372 34.9807 167.372 35.1907 167.342 35.3907V35.5007H167.332ZM166.472 34.9807C166.472 34.4907 166.402 34.1207 166.222 33.8607C166.052 33.6007 165.782 33.4607 165.422 33.4507C164.852 33.4407 164.382 33.7207 163.982 34.3007L163.572 36.6607C163.772 37.2107 164.152 37.4907 164.702 37.5107C165.052 37.5207 165.372 37.4207 165.632 37.1907C165.902 36.9707 166.102 36.6507 166.242 36.2507C166.382 35.8507 166.452 35.4207 166.462 34.9707L166.472 34.9807Z" fill="#061A48"/>
<path d="M168.771 38.1907H167.871L169.211 30.4707H170.121L168.781 38.1907H168.771Z" fill="#061A48"/>
<path d="M172.352 38.2911C171.672 38.2811 171.142 38.0311 170.762 37.5411C170.382 37.0511 170.222 36.4311 170.282 35.6811L170.312 35.4611C170.372 34.9211 170.532 34.4311 170.792 33.9811C171.052 33.5311 171.372 33.2011 171.752 32.9711C172.132 32.7411 172.542 32.6411 172.982 32.6511C173.542 32.6611 173.982 32.8511 174.302 33.2111C174.622 33.5711 174.792 34.0511 174.822 34.6711C174.822 34.8911 174.822 35.1111 174.802 35.3211L174.752 35.7411H171.202C171.142 36.2311 171.222 36.6511 171.442 37.0011C171.662 37.3511 172.002 37.5211 172.442 37.5411C172.982 37.5511 173.472 37.3111 173.932 36.8211L174.452 37.2611C174.222 37.5911 173.932 37.8511 173.572 38.0311C173.212 38.2211 172.812 38.3111 172.372 38.3011L172.352 38.2911ZM172.932 33.4111C172.552 33.4111 172.232 33.5311 171.952 33.7911C171.672 34.0511 171.452 34.4511 171.282 34.9711H173.922L173.942 34.8911C173.992 34.4711 173.932 34.1211 173.742 33.8411C173.552 33.5611 173.282 33.4211 172.932 33.4111Z" fill="#061A48"/>
<path d="M182.269 35.4998C182.199 36.0498 182.049 36.5498 181.819 36.9898C181.589 37.4298 181.299 37.7598 180.959 37.9798C180.619 38.1998 180.239 38.2998 179.819 38.2898C179.189 38.2798 178.709 38.0598 178.369 37.6498L177.879 40.2698H176.969L178.279 32.7398H179.099L178.999 33.3398C179.449 32.8598 179.989 32.6198 180.609 32.6398C181.129 32.6498 181.539 32.8498 181.829 33.2198C182.119 33.5898 182.279 34.0998 182.289 34.7598C182.289 34.9698 182.289 35.1798 182.269 35.3798L182.249 35.4898L182.269 35.4998ZM181.379 35.3998L181.409 34.9798C181.409 34.4898 181.319 34.1198 181.129 33.8598C180.939 33.5998 180.669 33.4598 180.319 33.4498C179.789 33.4398 179.339 33.6898 178.959 34.1998L178.499 36.7998C178.699 37.2798 179.069 37.5298 179.599 37.5398C180.049 37.5498 180.439 37.3698 180.749 37.0098C181.069 36.6498 181.279 36.1098 181.369 35.3998H181.379Z" fill="#061A48"/>
<path d="M186.12 33.5907L185.69 33.5507C185.11 33.5507 184.65 33.8107 184.31 34.3407L183.64 38.2007H182.73L183.67 32.7607H184.55L184.42 33.3907C184.8 32.8807 185.26 32.6407 185.78 32.6507C185.89 32.6507 186.03 32.6807 186.21 32.7307L186.11 33.5907H186.12Z" fill="#061A48"/>
<path d="M186.892 38.1915H185.992L186.932 32.7515H187.832L186.892 38.1915ZM187.642 30.7715C187.792 30.7715 187.922 30.8115 188.022 30.9115C188.122 31.0115 188.172 31.1415 188.172 31.3015C188.172 31.4615 188.122 31.5915 188.022 31.6915C187.922 31.7915 187.792 31.8415 187.642 31.8515C187.492 31.8615 187.352 31.8115 187.252 31.7115C187.152 31.6115 187.102 31.4915 187.102 31.3315C187.102 31.1715 187.152 31.0415 187.252 30.9415C187.352 30.8415 187.472 30.7815 187.632 30.7715H187.642Z" fill="#061A48"/>
<path d="M190.42 37.54C190.75 37.54 191.04 37.45 191.3 37.26C191.56 37.06 191.73 36.81 191.81 36.49H192.67C192.62 36.83 192.48 37.14 192.26 37.42C192.04 37.7 191.76 37.92 191.42 38.08C191.08 38.24 190.74 38.31 190.38 38.3C189.93 38.3 189.55 38.18 189.23 37.95C188.92 37.72 188.69 37.4 188.54 36.99C188.39 36.58 188.34 36.12 188.39 35.61L188.42 35.36C188.48 34.84 188.64 34.37 188.88 33.96C189.12 33.55 189.44 33.23 189.82 33C190.2 32.77 190.64 32.66 191.11 32.68C191.68 32.69 192.14 32.88 192.48 33.25C192.82 33.62 192.99 34.08 192.99 34.65H192.14C192.14 34.29 192.03 34 191.84 33.78C191.65 33.56 191.39 33.44 191.07 33.43C190.6 33.43 190.2 33.6 189.89 33.96C189.58 34.32 189.38 34.83 189.3 35.48V35.61C189.26 35.82 189.26 36.05 189.28 36.27C189.3 36.66 189.41 36.97 189.61 37.2C189.81 37.43 190.08 37.55 190.42 37.56V37.54Z" fill="#061A48"/>
<path d="M195.492 38.2911C194.812 38.2811 194.282 38.0311 193.902 37.5411C193.522 37.0511 193.362 36.4311 193.422 35.6811L193.442 35.4611C193.502 34.9211 193.662 34.4311 193.922 33.9811C194.182 33.5311 194.502 33.2011 194.882 32.9711C195.262 32.7411 195.672 32.6411 196.112 32.6511C196.672 32.6611 197.112 32.8511 197.432 33.2111C197.752 33.5711 197.922 34.0511 197.952 34.6711C197.952 34.8911 197.952 35.1111 197.932 35.3211L197.882 35.7411H194.332C194.272 36.2311 194.352 36.6511 194.572 37.0011C194.792 37.3511 195.122 37.5211 195.572 37.5411C196.112 37.5511 196.602 37.3111 197.062 36.8211L197.582 37.2611C197.352 37.5911 197.062 37.8511 196.702 38.0311C196.342 38.2111 195.942 38.3111 195.502 38.3011L195.492 38.2911ZM196.072 33.4111C195.692 33.4111 195.372 33.5311 195.092 33.7911C194.812 34.0511 194.592 34.4511 194.422 34.9711H197.062L197.082 34.8911C197.132 34.4711 197.072 34.1211 196.882 33.8411C196.692 33.5611 196.422 33.4211 196.072 33.4111Z" fill="#061A48"/>
<path d="M201.58 36.7209C201.63 36.3409 201.42 36.0809 200.96 35.9309L200.02 35.6509C199.22 35.3809 198.84 34.9209 198.86 34.2809C198.88 33.8009 199.1 33.4109 199.52 33.1009C199.93 32.7909 200.42 32.6409 200.98 32.6509C201.53 32.6509 201.98 32.8209 202.32 33.1309C202.66 33.4409 202.83 33.8509 202.82 34.3509H201.92C201.92 34.0709 201.84 33.8509 201.66 33.6809C201.48 33.5109 201.25 33.4209 200.95 33.4109C200.63 33.4109 200.36 33.4809 200.14 33.6409C199.93 33.7909 199.81 33.9909 199.77 34.2309C199.73 34.5409 199.92 34.7709 200.35 34.9209L200.81 35.0409C201.43 35.2009 201.87 35.4109 202.14 35.6709C202.4 35.9309 202.52 36.2509 202.5 36.6309C202.48 36.9709 202.37 37.2609 202.17 37.5109C201.97 37.7609 201.7 37.9509 201.37 38.0909C201.04 38.2209 200.68 38.2809 200.3 38.2709C199.72 38.2709 199.25 38.1009 198.87 37.7709C198.49 37.4409 198.31 37.0209 198.33 36.5009H199.24C199.24 36.8109 199.34 37.0509 199.53 37.2409C199.72 37.4209 199.99 37.5209 200.33 37.5209C200.66 37.5209 200.95 37.4609 201.19 37.3109C201.43 37.1609 201.57 36.9609 201.6 36.7109L201.58 36.7209Z" fill="#061A48"/>
</svg>
